<svg width="280" height="102" viewBox="0 0 280 102" fill="none" xmlns="http://www.w3.org/2000/svg"><path d="M127.278 69.461V42.5978H127.752L147.104 69.461H153.194V30.0121H146.428V56.8076H145.954L126.602 30.0121H120.512V69.461H127.278ZM172.343 70.07C181.275 70.07 186.756 64.2508 186.756 54.507C186.756 44.8308 181.275 38.9439 172.343 38.9439C163.479 38.9439 157.931 44.8308 157.931 54.507C157.998 64.2508 163.412 70.07 172.343 70.07ZM172.343 64.3861C167.607 64.3861 164.9 60.7999 164.9 54.507C164.9 48.2817 167.607 44.6278 172.343 44.6278C177.08 44.6278 179.787 48.2817 179.787 54.507C179.787 60.7999 177.08 64.3861 172.343 64.3861ZM192.914 32.245V39.7559H188.177V45.1691H192.914V61.4765C192.914 67.2957 195.62 69.5964 202.522 69.5964C203.808 69.5964 205.094 69.461 206.109 69.258V63.9801C205.297 64.0478 204.755 64.1155 203.808 64.1155C200.966 64.1155 199.68 62.8298 199.68 59.8525V45.1691H206.109V39.7559H199.68V32.245H192.914ZM210.168 69.461H216.935V39.5529H210.168V69.461ZM213.552 34.6133C215.785 34.6133 217.612 32.7863 217.612 30.5534C217.612 28.2527 215.785 26.4258 213.552 26.4258C211.319 26.4258 209.492 28.2527 209.492 30.5534C209.492 32.7863 211.319 34.6133 213.552 34.6133ZM235.475 70.07C244.407 70.07 249.888 64.2508 249.888 54.507C249.888 44.8308 244.407 38.9439 235.475 38.9439C226.611 38.9439 221.063 44.8308 221.063 54.507C221.063 64.2508 226.476 70.07 235.475 70.07ZM235.475 64.3861C230.739 64.3861 228.032 60.7999 228.032 54.507C228.032 48.2817 230.739 44.6278 235.475 44.6278C240.144 44.6278 242.919 48.2817 242.919 54.507C242.851 60.7999 240.144 64.3861 235.475 64.3861ZM253.88 69.461H260.647V52.071C260.647 47.6727 263.218 44.8985 267.21 44.8985C271.338 44.8985 273.233 47.1991 273.233 51.7327V69.461H279.999V50.1087C279.999 42.9362 276.345 38.9439 269.714 38.9439C265.248 38.9439 262.271 40.9739 260.85 44.3571H260.376V39.5529H253.813C253.88 39.5529 253.88 69.461 253.88 69.461Z" fill="white" style="fill:white;fill-opacity:1;"/><path fill-rule="evenodd" clip-rule="evenodd" d="M16.8487 17.832C20.029 20.4033 21.1793 20.2003 27.1339 19.7943L83.2285 16.411C84.4465 16.411 83.4315 15.1931 83.0256 15.0577L73.6877 8.35885C71.9284 7.00554 69.4925 5.38156 64.9589 5.78756L10.6911 9.77982C8.72885 9.98281 8.32285 10.9978 9.13484 11.7421L16.8487 17.832ZM20.232 30.8915V89.8958C20.232 93.0761 21.7883 94.2264 25.3746 94.0234L87.0178 90.4371C90.6041 90.2341 91.0101 88.0688 91.0101 85.4975V26.8992C91.0101 24.3279 89.9951 22.9069 87.8298 23.1099L23.4123 26.8992C21.044 27.1022 20.232 28.3202 20.232 30.8915ZM81.0632 34.0717C81.4692 35.831 81.0632 37.658 79.3039 37.861L76.3267 38.47V82.0466C73.7554 83.3999 71.3871 84.2119 69.3571 84.2119C66.1768 84.2119 65.3649 83.1969 62.9966 80.2196L43.5766 49.7025V79.2046L49.7341 80.5579C49.7341 80.5579 49.7341 84.1442 44.7946 84.1442L31.1261 84.9562C30.7201 84.1442 31.1261 82.1819 32.4794 81.7759L36.0657 80.7609V41.7856L31.1261 41.3796C30.7201 39.6203 31.7351 37.049 34.5094 36.846L49.1928 35.831L69.4248 66.6865V39.4173L64.2822 38.8083C63.8762 36.643 65.5002 35.0191 67.4625 34.8161L81.0632 34.0717ZM6.15756 4.36658L62.6582 0.238981C69.5601 -0.370009 71.3871 0.0359853 75.7177 3.21626L93.7167 15.8697C96.694 18.035 97.709 18.644 97.709 21.0123V90.5048C97.709 94.8354 96.1526 97.4066 90.6041 97.8126L25.0362 101.805C20.841 102.008 18.8787 101.399 16.7134 98.6246L3.38327 81.3699C1.01498 78.1897 0 75.8214 0 73.0471V11.2685C0 7.68218 1.62397 4.77257 6.15756 4.36658Z" fill="white" style="fill:white;fill-opacity:1;"/></svg>